<svg width="394" height="106" viewBox="0 0 394 106" fill="none" xmlns="http://www.w3.org/2000/svg">
<path d="M150.125 104.917V90.7022L148.779 87.5884V62.1372C148.779 57.6245 147.388 54.1047 144.606 51.5776C141.915 49.0505 137.743 47.787 132.09 47.787C128.232 47.787 124.418 48.4188 120.65 49.6823C116.971 50.8556 113.831 52.4801 111.229 54.556L103.692 39.7996C107.64 37.0018 112.395 34.8357 117.958 33.3014C123.521 31.7671 129.174 31 134.916 31C145.952 31 154.521 33.6173 160.622 38.852C166.724 44.0866 169.774 52.2545 169.774 63.3556V104.917H150.125ZM128.052 106C122.399 106 117.554 105.052 113.517 103.157C109.479 101.171 106.384 98.509 104.23 95.1697C102.077 91.8303 101 88.0848 101 83.9332C101 79.6011 102.032 75.8105 104.096 72.5614C106.249 69.3123 109.614 66.7852 114.19 64.9801C118.766 63.0848 124.732 62.1372 132.09 62.1372H151.336V74.4567H134.378C129.443 74.4567 126.033 75.269 124.149 76.8935C122.355 78.5181 121.457 80.5487 121.457 82.9856C121.457 85.6931 122.489 87.8592 124.553 89.4838C126.706 91.018 129.622 91.7852 133.301 91.7852C136.8 91.7852 139.941 90.9729 142.722 89.3484C145.504 87.6336 147.523 85.1516 148.779 81.9025L152.009 91.6498C150.483 96.343 147.702 99.9079 143.664 102.345C139.627 104.782 134.423 106 128.052 106Z" fill="#FF7300"/>
<path d="M281.508 31C287.25 31 292.32 32.1733 296.716 34.5199C301.202 36.7762 304.702 40.296 307.214 45.0794C309.816 49.7726 311.117 55.8195 311.117 63.2202V104.917H290.121V66.4693C290.121 60.6029 288.91 56.2708 286.487 53.4729C284.065 50.6751 280.655 49.2762 276.259 49.2762C273.208 49.2762 270.471 49.9982 268.049 51.4422C265.626 52.796 263.742 54.8718 262.396 57.6697C261.05 60.4675 260.377 64.0325 260.377 68.3646V104.917H239.382V66.4693C239.382 60.6029 238.17 56.2708 235.748 53.4729C233.415 50.6751 230.05 49.2762 225.654 49.2762C222.603 49.2762 219.866 49.9982 217.444 51.4422C215.021 52.796 213.137 54.8718 211.791 57.6697C210.445 60.4675 209.772 64.0325 209.772 68.3646V104.917H188.777V32.083H208.83V51.9837L205.062 46.1625C207.574 41.1986 211.118 37.4531 215.694 34.926C220.36 32.3087 225.654 31 231.576 31C238.215 31 244.002 32.7148 248.937 36.1444C253.962 39.4838 257.282 44.6282 258.897 51.5776L251.495 49.5469C253.917 43.861 257.775 39.3484 263.069 36.009C268.453 32.6697 274.599 31 281.508 31Z" fill="#FF7300"/>
<path d="M374.35 104.917V90.7022L373.004 87.5884V62.1372C373.004 57.6245 371.614 54.1047 368.832 51.5776C366.14 49.0505 361.968 47.787 356.315 47.787C352.457 47.787 348.644 48.4188 344.875 49.6823C341.197 50.8556 338.056 52.4801 335.454 54.556L327.917 39.7996C331.865 37.0018 336.621 34.8357 342.184 33.3014C347.747 31.7671 353.399 31 359.142 31C370.178 31 378.747 33.6173 384.848 38.852C390.949 44.0866 394 52.2545 394 63.3556V104.917H374.35ZM352.278 106C346.625 106 341.78 105.052 337.742 103.157C333.705 101.171 330.609 98.509 328.456 95.1697C326.302 91.8303 325.226 88.0848 325.226 83.9332C325.226 79.6011 326.257 75.8105 328.321 72.5614C330.474 69.3123 333.839 66.7852 338.415 64.9801C342.991 63.0848 348.958 62.1372 356.315 62.1372H375.561V74.4567H358.603C353.668 74.4567 350.259 75.269 348.375 76.8935C346.58 78.5181 345.683 80.5487 345.683 82.9856C345.683 85.6931 346.715 87.8592 348.778 89.4838C350.932 91.018 353.848 91.7852 357.527 91.7852C361.026 91.7852 364.166 90.9729 366.948 89.3484C369.729 87.6336 371.748 85.1516 373.004 81.9025L376.234 91.6498C374.709 96.343 371.928 99.9079 367.89 102.345C363.852 104.782 358.648 106 352.278 106Z" fill="#FF7300"/>
<path d="M64.1201 0V34.249C60.3996 32.9127 56.4192 32.1456 52.2438 32.1456C32.5691 32.1456 16.623 48.338 16.623 68.3166C16.623 88.2952 32.5691 104.488 52.2438 104.488C71.9185 104.488 87.8646 88.2952 87.8646 68.3166V0H64.1201ZM43.8443 97.1956C39.1328 97.1956 35.3148 93.3187 35.3148 88.5344C35.3148 83.7501 39.1328 79.8731 43.8443 79.8731C48.5558 79.8731 52.3738 83.7501 52.3738 88.5344C52.3738 93.3187 48.5558 97.1956 43.8443 97.1956Z" fill="#27AD7A"/>
<path d="M8.31151 104.487C12.9018 104.487 16.623 100.766 16.623 96.1757C16.623 91.5854 12.9018 87.8642 8.31151 87.8642C3.72119 87.8642 0 91.5854 0 96.1757C0 100.766 3.72119 104.487 8.31151 104.487Z" fill="#27AD7A"/>
</svg>
